<svg viewBox="0 0 860 860" fill="none" xmlns="http://www.w3.org/2000/svg">
<path d="M430 0.25C667.317 0.25 859.75 171.195 859.75 382.25C859.75 593.305 573.25 859.75 430 859.75C286.75 859.75 0.25 593.305 0.25 382.25C0.25 171.195 192.683 0.25 430 0.25ZM349.303 378.908C300.598 300.598 213.693 266.695 155.438 302.985C97.1825 339.275 89.5425 432.387 138.247 510.697C187.43 589.007 274.335 622.91 332.59 586.62C390.845 549.375 398.008 457.218 349.303 378.908ZM510.697 378.908C461.992 457.218 469.155 549.375 527.41 586.62C585.665 622.91 672.57 589.007 721.753 510.697C770.458 432.387 762.818 339.275 704.562 302.985C646.307 266.695 559.402 300.598 510.697 378.908ZM430 704.562C334.5 704.562 310.625 668.75 310.625 668.75C310.625 670.182 334.5 764.25 430 764.25C525.5 764.25 549.375 668.75 549.375 668.75C549.375 668.75 525.5 704.562 430 704.562Z" fill="#4CEE10"/>
</svg>